<?xml version="1.0" encoding="utf-8"?>
<!-- Generator: Adobe Illustrator 19.1.0, SVG Export Plug-In . SVG Version: 6.00 Build 0)  -->
<svg version="1.1" xmlns="http://www.w3.org/2000/svg" xmlns:xlink="http://www.w3.org/1999/xlink" x="0px" y="0px"
	 viewBox="0 0 56 18" style="enable-background:new 0 0 56 18;" xml:space="preserve">
<style type="text/css">
	.st0{fill:#FFFFFF;}
	.st1{fill:#CC0000;}
</style>
<g id="Layer_1">
</g>
<g id="content_x2C__place_separately">
</g>
<g id="logo_x2C__place_separately">
	<g id="black_9_">
		<g>
			<path d="M17.9,13.4L17.9,13.4l0.2,0.2h0.1L18,13.4c0.1,0,0.1,0,0.1-0.1c0-0.1-0.1-0.1-0.2-0.1h-0.2v0.5h0.1V13.4z M17.9,13.3
				v-0.1H18c0.1,0,0.1,0,0.1,0.1C18.1,13.3,18,13.3,17.9,13.3L17.9,13.3z"/>
			<path d="M18.4,13.4c0,0.2-0.2,0.5-0.5,0.5c-0.2,0-0.5-0.2-0.5-0.5c0-0.2,0.2-0.5,0.5-0.5C18.2,12.9,18.4,13.1,18.4,13.4z M18,13
				c-0.2,0-0.4,0.2-0.4,0.4c0,0.2,0.2,0.4,0.4,0.4c0.2,0,0.4-0.2,0.4-0.4C18.3,13.2,18.2,13,18,13z"/>
		</g>
		<g>
			<path d="M16.5,13.9c-0.3-0.1-0.7-0.1-1.1-0.1c-0.6,0-1.2,0.1-1.6,0.3c-0.1,0-0.1,0.1-0.1,0.1c0,0,0,0,0,0.1c0,0.1,0,0.3-0.4,0.4
				c-0.6,0.1-1,0.8-1.2,1c-0.3,0.2-1,0.4-0.9,0.2c0.1-0.1,0.4-0.5,0.6-0.9c0.2-0.3,0.3-0.4,0.6-0.8c0.1-0.1,0.3-0.4,0.4-0.7
				c0.1-0.3,0.1-0.6,0.1-0.7c0-0.2,0.2-0.6,0.2-0.9c0-0.1-0.6,0.2-0.8,0.2c-0.3,0-0.5-0.2-0.8-0.2c-0.3,0-0.5,0.2-0.8,0.2
				c-0.2,0-0.3-0.2-0.6-0.2c-0.4,0-0.9,0.2-1.8,0.2c-0.9,0-1.7-1.1-1.8-1.3c-0.1-0.2-0.3-0.2-0.5,0c-0.2,0.2-0.4,0-0.4-0.1
				C5.6,10.6,5.3,10,4.8,9.8c-0.7-0.2-1,0.4-0.9,0.8c0,0.4,0.3,0.6,0.5,0.8c0.1,0.2,0.2,0.4,0.4,0.5C4.9,12,5,12.1,4.9,12.2
				c0,0.1-0.2,0.2-0.3,0.2c-0.3,0-0.4-0.1-0.6-0.1c-0.1-0.1-0.3-0.2-0.4-0.4c-0.2-0.3-0.4-0.4-0.7-0.4c-0.1,0-0.3,0-0.4,0.1
				c-0.4,0.2-0.9,0.4-1.5,0.4H0.5C0.2,11,0,10,0,9c0-5,4-9,9-9c5,0,9,4,9,9C18,10.8,17.4,12.5,16.5,13.9z"/>
			<g id="logo_5_">
				<g id="white_5_">
					<path class="st0" d="M16.5,13.9c-0.3-0.1-0.7-0.1-1.1-0.1c-0.6,0-1.2,0.1-1.6,0.3c-0.1,0-0.1,0.1-0.1,0.1c0,0,0,0,0,0.1
						c0,0.1,0,0.3-0.4,0.4c-0.6,0.1-1,0.8-1.2,1c-0.3,0.2-1,0.4-0.9,0.2c0.1-0.1,0.4-0.5,0.6-0.9c0.2-0.3,0.3-0.4,0.6-0.8
						c0.1-0.1,0.3-0.4,0.4-0.7c0.1-0.3,0.1-0.6,0.1-0.7c0-0.2,0.2-0.6,0.2-0.9c0-0.1-0.6,0.2-0.8,0.2c-0.3,0-0.5-0.2-0.8-0.2
						c-0.3,0-0.5,0.2-0.8,0.2c-0.2,0-0.3-0.2-0.6-0.2c-0.4,0-0.9,0.2-1.8,0.2c-0.9,0-1.7-1.1-1.8-1.3c-0.1-0.2-0.3-0.2-0.5,0
						c-0.2,0.2-0.4,0-0.4-0.1C5.6,10.6,5.3,10,4.8,9.8c-0.7-0.2-1,0.4-0.9,0.8c0,0.4,0.3,0.6,0.5,0.8c0.1,0.2,0.2,0.4,0.4,0.5
						C4.9,12,5,12.1,4.9,12.2c0,0.1-0.2,0.2-0.3,0.2c-0.3,0-0.4-0.1-0.6-0.1c-0.1-0.1-0.3-0.2-0.4-0.4c-0.2-0.3-0.4-0.4-0.7-0.4
						c-0.1,0-0.3,0-0.4,0.1c-0.4,0.2-0.9,0.4-1.5,0.4H0.5C1.7,15.4,5,18,9,18C12.2,18,14.9,16.4,16.5,13.9z"/>
				</g>
				<g id="black_10_">
					<g>
						<path d="M17.9,13.4L17.9,13.4l0.2,0.2h0.1L18,13.4c0.1,0,0.1,0,0.1-0.1c0-0.1-0.1-0.1-0.2-0.1h-0.2v0.5h0.1V13.4z M17.9,13.3
							v-0.1H18c0.1,0,0.1,0,0.1,0.1C18.1,13.3,18,13.3,17.9,13.3L17.9,13.3z"/>
						<path d="M18.4,13.4c0,0.2-0.2,0.5-0.5,0.5c-0.2,0-0.5-0.2-0.5-0.5c0-0.2,0.2-0.5,0.5-0.5C18.2,12.9,18.4,13.1,18.4,13.4z
							 M18,13c-0.2,0-0.4,0.2-0.4,0.4c0,0.2,0.2,0.4,0.4,0.4c0.2,0,0.4-0.2,0.4-0.4C18.3,13.2,18.2,13,18,13z"/>
					</g>
					<g>
						<path d="M16.5,13.9c-0.3-0.1-0.7-0.1-1.1-0.1c-0.6,0-1.2,0.1-1.6,0.3c-0.1,0-0.1,0.1-0.1,0.1c0,0,0,0,0,0.1
							c0,0.1,0,0.3-0.4,0.4c-0.6,0.1-1,0.8-1.2,1c-0.3,0.2-1,0.4-0.9,0.2c0.1-0.1,0.4-0.5,0.6-0.9c0.2-0.3,0.3-0.4,0.6-0.8
							c0.1-0.1,0.3-0.4,0.4-0.7c0.1-0.3,0.1-0.6,0.1-0.7c0-0.2,0.2-0.6,0.2-0.9c0-0.1-0.6,0.2-0.8,0.2c-0.3,0-0.5-0.2-0.8-0.2
							c-0.3,0-0.5,0.2-0.8,0.2c-0.2,0-0.3-0.2-0.6-0.2c-0.4,0-0.9,0.2-1.8,0.2c-0.9,0-1.7-1.1-1.8-1.3c-0.1-0.2-0.3-0.2-0.5,0
							c-0.2,0.2-0.4,0-0.4-0.1C5.6,10.6,5.3,10,4.8,9.8c-0.7-0.2-1,0.4-0.9,0.8c0,0.4,0.3,0.6,0.5,0.8c0.1,0.2,0.2,0.4,0.4,0.5
							C4.9,12,5,12.1,4.9,12.2c0,0.1-0.2,0.2-0.3,0.2c-0.3,0-0.4-0.1-0.6-0.1c-0.1-0.1-0.3-0.2-0.4-0.4c-0.2-0.3-0.4-0.4-0.7-0.4
							c-0.1,0-0.3,0-0.4,0.1c-0.4,0.2-0.9,0.4-1.5,0.4H0.5C0.2,11,0,10,0,9c0-5,4-9,9-9c5,0,9,4,9,9C18,10.8,17.4,12.5,16.5,13.9z"
							/>
					</g>
					<path d="M22.6,9.6c0-0.8,0-1.4-0.1-2h1.3l0.1,1.2h0c0.3-0.9,1-1.3,1.7-1.3c0.2,0,0.2,0,0.4,0v1.5c-0.1,0-0.3,0-0.5,0
						c-0.7,0-1.3,0.5-1.4,1.2c0,0.1,0,0.3,0,0.5v3.2h-1.6L22.6,9.6z"/>
					<path d="M27.9,11.1c0,1.1,0.9,1.6,1.9,1.6c0.7,0,1.2-0.1,1.7-0.3l0.2,1.1c-0.5,0.2-1.3,0.4-2.2,0.4c-2,0-3.2-1.2-3.2-3.1
						c0-1.7,1-3.3,3-3.3c2,0,2.7,1.6,2.7,3c0,0.3,0,0.5-0.1,0.7L27.9,11.1z M30.6,10c0-0.6-0.2-1.5-1.3-1.5c-1,0-1.4,0.9-1.4,1.5
						H30.6z"/>
					<path d="M37.2,11.1c0,0.2,0,0.3,0,0.5c-0.2,0.7-0.7,1.1-1.3,1.1c-1,0-1.5-0.8-1.5-2c0-1.1,0.6-2,1.6-2c0.7,0,1.2,0.5,1.3,1.1
						c0,0.1,0,0.3,0,0.4V11.1z M38.8,5.2l-1.6-0.4v3.5h0c-0.3-0.5-0.9-0.8-1.7-0.8c-1.5,0-2.8,1.2-2.8,3.3c0,1.9,1.2,3.1,2.6,3.1
						c0.9,0,1.6-0.4,2-1.1h0l0.1,1h1.4c0-0.4-0.1-1.1-0.1-1.7V5.2z"/>
					<path d="M42.9,7.4c-0.5,0-0.9,0.1-1.2,0.4C41.3,8,41,8.3,40.8,8.7h0V5.8l-0.6-0.2v8.1h0.6V10c0-0.3,0-0.4,0.1-0.6
						c0.3-0.8,1-1.4,1.9-1.4c1.3,0,1.7,1,1.7,2.1v3.6H45V10C45,7.7,43.5,7.4,42.9,7.4z"/>
					<path d="M50.5,12.3c0,0.5,0,1,0.1,1.5H50l-0.1-0.9h0c-0.3,0.5-1,1-2,1c-1.2,0-1.8-0.9-1.8-1.7c0-1.4,1.3-2.3,3.8-2.3V9.8
						c0-0.6-0.1-1.8-1.6-1.8c-0.5,0-1.1,0.1-1.5,0.5L46.6,8c0.6-0.4,1.3-0.5,1.8-0.5c1.8,0,2.1,1.3,2.1,2.4V12.3z M49.9,10.5
						c-1.3,0-3.1,0.2-3.1,1.6c0,0.9,0.6,1.3,1.2,1.3c1,0,1.6-0.6,1.8-1.2c0-0.1,0.1-0.3,0.1-0.4V10.5z"/>
					<path d="M52.9,6.2v1.4h1.8v0.5h-1.8v4c0,0.8,0.2,1.3,0.9,1.3c0.3,0,0.5,0,0.7-0.1l0.1,0.5c-0.2,0.1-0.5,0.1-0.9,0.1
						c-0.5,0-0.8-0.1-1.1-0.4c-0.3-0.3-0.4-0.8-0.4-1.5V8.1h-1V7.6h1V6.5L52.9,6.2z"/>
					<g>
						<path d="M55.5,13.4L55.5,13.4l0.2,0.2h0.1l-0.1-0.2c0.1,0,0.1,0,0.1-0.1c0-0.1-0.1-0.1-0.2-0.1h-0.2v0.5h0.1V13.4z M55.5,13.4
							v-0.1h0.1c0,0,0.1,0,0.1,0.1C55.7,13.4,55.6,13.4,55.5,13.4L55.5,13.4z"/>
						<path d="M56,13.4c0,0.3-0.2,0.5-0.5,0.5c-0.2,0-0.5-0.2-0.5-0.5c0-0.3,0.2-0.5,0.5-0.5C55.8,12.9,56,13.1,56,13.4z M55.5,13
							c-0.2,0-0.4,0.2-0.4,0.4c0,0.2,0.2,0.4,0.4,0.4c0.2,0,0.4-0.2,0.4-0.4C55.9,13.2,55.8,13,55.5,13z"/>
					</g>
					<path d="M11,13.1c0,0,0.1,0.2,0,0.4c-0.1,0.1-0.1,0.2-0.2,0.3c-0.1,0.1-0.4,0.2-0.7,0c-0.2-0.1-0.2-0.2-0.4-0.1
						c-0.2,0-0.3-0.2-0.2-0.3c0.1-0.2,0.3-0.3,0.7-0.1c0.2,0.1,0.4,0.3,0.6,0.1C10.8,13.2,10.8,13.2,11,13.1
						C10.9,13.1,10.9,13.1,11,13.1C10.9,13.1,11,13.1,11,13.1z"/>
				</g>
				<path id="red_5_" class="st1" d="M8.3,4.3C7.3,4.4,7.1,4.5,7,4.7C6.7,5,6.3,4.3,6.3,4.3C6.1,4.3,5.8,3.9,6,3.6
					c0.1-0.3,0.4-0.2,0.5-0.1C6.6,3.6,6.8,3.8,7,3.8c0.3,0,0.6-0.1,1-0.1c0.4,0,0.7,0.2,0.8,0.3C8.8,4.1,8.8,4.3,8.3,4.3z M9.4,2.6
					L9.4,2.6C9.4,2.6,9.3,2.6,9.4,2.6C9.3,2.5,9.4,2.5,9.4,2.6c0.2-0.2,0.5-0.2,0.8-0.3c0.1,0,0.2,0,0.3,0c0,0,0,0,0,0
					c0.6,0,1,0.2,1,0.5c0,0.3-0.5,0.5-1.1,0.5c-0.2,0-0.4,0-0.5-0.1c0,0,0,0,0,0c0,0,0,0,0,0c0.4-0.1,0.6-0.2,0.6-0.3
					c0-0.2-0.5-0.3-1-0.2C9.5,2.6,9.4,2.6,9.4,2.6z M14.1,6.6c-0.1,0.3-0.2,0.7-0.8,1c-0.1,0-0.1,0-0.1-0.1c0.2-0.4,0.3-0.4,0.3-0.6
					c0.1-0.2,0.1-0.5,0-1.1c-0.3-1.2-1-2.8-1.6-3.4C11.4,1.9,10.5,1.7,9.7,2C9.4,2,8.8,2.3,7.8,2.1C5.9,1.7,5.6,2.6,5.5,3
					C5.4,3.4,5.1,4.6,5.1,4.6C5,5.1,4.9,5.9,7.8,6.4C9.2,6.7,9.3,7,9.3,7.3C9.4,7.7,9.6,8,9.8,8.1c0.2,0.1,0,0.2-0.2,0.3
					C9,8.5,6.9,7.8,5.6,7.1c-1-0.6-1.1-1.2-0.8-1.7C3.2,5.3,2.1,5.6,1.9,6.3c-0.4,1.3,2.8,3.4,6.4,4.5c3.8,1.1,7.6,0.3,8.1-2
					C16.5,7.7,15.6,7,14.1,6.6z"/>
			</g>
		</g>
		<g>
			<path d="M55.5,13.4L55.5,13.4l0.2,0.2h0.1l-0.1-0.2c0.1,0,0.1,0,0.1-0.1c0-0.1-0.1-0.1-0.2-0.1h-0.2v0.5h0.1V13.4z M55.5,13.4
				v-0.1h0.1c0,0,0.1,0,0.1,0.1C55.7,13.4,55.6,13.4,55.5,13.4L55.5,13.4z"/>
			<path d="M56,13.4c0,0.3-0.2,0.5-0.5,0.5c-0.2,0-0.5-0.2-0.5-0.5c0-0.3,0.2-0.5,0.5-0.5C55.8,12.9,56,13.1,56,13.4z M55.5,13
				c-0.2,0-0.4,0.2-0.4,0.4c0,0.2,0.2,0.4,0.4,0.4c0.2,0,0.4-0.2,0.4-0.4C55.9,13.2,55.8,13,55.5,13z"/>
		</g>
		<path d="M11,13.1c0,0,0.1,0.2,0,0.4c-0.1,0.1-0.1,0.2-0.2,0.3c-0.1,0.1-0.4,0.2-0.7,0c-0.2-0.1-0.2-0.2-0.4-0.1
			c-0.2,0-0.3-0.2-0.2-0.3c0.1-0.2,0.3-0.3,0.7-0.1c0.2,0.1,0.4,0.3,0.6,0.1C10.8,13.2,10.8,13.2,11,13.1
			C10.9,13.1,10.9,13.1,11,13.1C10.9,13.1,11,13.1,11,13.1z"/>
	</g>
</g>
</svg>
